#!OML:ASF E:\Steps\Project 1\Capture day 1\Session 2\Subject.ASF
:FULLY-SPECIFIED
:DEGREES
16
root 8.9298 16.2463 31.5019 -161.539 -0.894946 181.378
lowerback -23.8076 -0.980192 -3.33461
upperback -0.00549426 -0.604376 -0.221437
thorax 13.4377 -0.602097 1.42705
lowerneck 1.05556 -3.17307 -4.32169
upperneck -10.8027 -3.22433 7.91373
head -3.51312 -1.51123 3.53176
rclavicle 2.98177e-016 1.31198e-014
rhumerus -35.0863 -20.5139 -77.5954
rradius 26.7886
rwrist 3.46384
rhand -9.64089 -51.5133
rfingers 7.12502
rthumb 16.3294 -80.8459
lclavicle 2.98177e-016 1.31198e-014
lhumerus -27.3458 13.8787 76.8129
lradius 16.1708
lwrist -10.4718
lhand -19.9442 -15.4064
lfingers 7.12502
lthumb 6.39367 14.4771
rfemur -15.4903 7.9741 21.3554
rtibia 8.47515
rfoot -20.4138 -7.58117
rtoes -31.7872
lfemur -16.5991 -9.34283 -16.4197
ltibia 8.52031
lfoot -8.99608 2.93792
ltoes -41.192
17
root 8.92494 16.2463 31.4905 -161.537 -0.947712 180.874
lowerback -23.9879 -1.12059 -3.73746
upperback 0.0384113 -0.649273 -0.398032
thorax 13.5962 -0.646738 1.43841
lowerneck 1.15791 -3.18148 -4.34242
upperneck -10.7533 -3.24325 7.98096
head -3.51344 -1.52698 3.56164
rclavicle -2.98177e-016 -1.59028e-014
rhumerus -35.2516 -20.6921 -77.4554
rradius 26.5924
rwrist 3.44683
rhand -9.56075 -51.4961
rfingers 7.12502
rthumb 16.4066 -80.8223
lclavicle -2.98177e-016 -1.59028e-014
lhumerus -27.5328 14.4465 76.3543
lradius 15.8179
lwrist -10.3173
lhand -19.8353 -15.6444
lfingers 7.12502
lthumb 6.49877 14.2359
rfemur -15.2883 7.64291 20.7839
rtibia 8.27306
rfoot -20.4165 -7.51043
rtoes -31.8772
lfemur -16.4591 -9.50557 -17.109
ltibia 8.40111
lfoot -8.98917 2.8509
ltoes -41.1893
18
root 8.91345 16.2505 31.4925 -160.826 -0.490032 179.76
lowerback -24.7074 -1.22887 -4.75319
upperback -0.151238 -0.476186 -0.749853
thorax 13.773 -0.644844 1.67014
lowerneck 1.27791 -3.24488 -4.38318
upperneck -10.8099 -3.31935 8.10054
head -3.54921 -1.56934 3.61913
rclavicle 2.98177e-016 -1.35174e-014
rhumerus -35.4645 -20.9443 -77.2185
rradius 26.404
rwrist 3.47876
rhand -9.69159 -51.5882
rfingers 7.12502
rthumb 16.2806 -80.9247
lclavicle 2.98177e-016 -1.35174e-014
lhumerus -28.0489 13.5847 76.4594
lradius 16.2508
lwrist -9.14562
lhand -19.6138 -16.0421
lfingers 7.12502
lthumb 6.71266 13.8315
rfemur -16.1597 6.83489 19.3132
rtibia 8.44507
rfoot -20.5479 -6.69446
rtoes -31.8027
lfemur -17.1046 -9.59404 -18.5913
ltibia 8.43688
lfoot -8.93777 2.96359
ltoes -41.4959
19
root 8.91806 16.2327 31.5118 -160.776 -0.200745 180.993
lowerback -24.5721 -0.826933 -3.54984
upperback -0.199253 -0.326405 -0.454043
thorax 13.6238 -0.499065 1.37512
lowerneck 1.18547 -3.28713 -4.41204
upperneck -10.7371 -3.37273 8.17155
head -3.50088 -1.59515 3.6455
rclavicle -3.47873e-015 -1.07344e-014
rhumerus -35.5826 -21.3776 -76.9306
rradius 26.1491
rwrist 3.88565
rhand -9.7797 -52.2108
rfingers 7.12502
rthumb 16.1958 -81.5542
lclavicle -3.47873e-015 -1.07344e-014
lhumerus -28.0327 17.1395 75.0672
lradius 13.7351
lwrist -16.6657
lhand -19.6504 -15.9427
lfingers 7.12502
lthumb 6.6773 13.932
rfemur -16.6137 7.50301 20.6911
rtibia 8.92277
rfoot -20.6717 -6.47501
rtoes -31.083
lfemur -17.2804 -9.16874 -17.0558
ltibia 8.5242
lfoot -8.92747 3.29825
ltoes -40.8229
20
root 8.91782 16.2378 31.5136 -161.245 -0.710959 181.138
lowerback -24.0876 -0.97354 -3.42747
upperback -0.0387999 -0.555512 -0.337707
thorax 13.5532 -0.587343 1.36162
lowerneck 0.93499 -3.29349 -4.3947
upperneck -10.5752 -3.38081 8.18551
head -3.3957 -1.59489 3.63379
rclavicle 5.36719e-015 -1.74931e-014
rhumerus -35.6758 -21.6682 -76.6705
rradius 25.9402
rwrist 4.25753
rhand -9.65074 -52.7391
rfingers 7.12502
rthumb 16.32 -82.0724
lclavicle 5.36719e-015 -1.74931e-014
lhumerus -28.2766 18.4276 74.5284
lradius 12.2973
lwrist -21.2272
lhand -19.6758 -15.4031
lfingers 7.12502
lthumb 6.65278 14.4724
rfemur -15.911 7.62817 20.9851
rtibia 8.72818
rfoot -20.6538 -6.95847
rtoes -30.6623
lfemur -16.9334 -9.39298 -16.8074
ltibia 8.68427
lfoot -8.96341 2.96744
ltoes -40.2724
21
root 8.91452 16.2402 31.5123 -161.335 -0.885557 181.061
lowerback -23.9939 -1.05287 -3.45559
upperback -0.0503737 -0.652651 -0.367637
thorax 13.492 -0.63117 1.31048
lowerneck 1.0892 -3.31586 -4.33035
upperneck -10.6048 -3.40797 8.24009
head -3.43387 -1.6169 3.64748
rclavicle 2.08724e-015 -6.36111e-015
rhumerus -35.987 -21.8313 -76.4702
rradius 25.7734
rwrist 4.33303
rhand -9.79804 -53.0049
rfingers 7.12502
rthumb 16.1781 -82.3498
lclavicle 2.08724e-015 -6.36111e-015
lhumerus -28.6085 18.4785 74.2169
lradius 12.0088
lwrist -21.1843
lhand -19.4011 -15.4382
lfingers 7.12502
lthumb 6.91795 14.4287
rfemur -15.7225 7.49905 20.9365
rtibia 8.66783
rfoot -20.6207 -7.08275
rtoes -31.0186
lfemur -16.8774 -9.4941 -16.9182
ltibia 8.75851
lfoot -8.93358 2.87024
ltoes -41.7832
22
root 8.91165 16.2397 31.5139 -161.289 -0.924911 181.012
lowerback -23.8939 -1.11173 -3.51626
upperback -0.181463 -0.735527 -0.350072
thorax 13.2872 -0.674771 1.33787
lowerneck 1.16226 -3.25558 -4.37733
upperneck -10.3895 -3.35982 8.26175
head -3.37597 -1.60074 3.65867
rclavicle -1.59028e-015 -1.51076e-014
rhumerus -36.3882 -21.8511 -76.1851
rradius 25.6271
rwrist 4.26517
rhand -10.2 -53.189
rfingers 7.12502
rthumb 15.791 -82.5649
lclavicle -1.59028e-015 -1.51076e-014
lhumerus -29.1273 17.0426 74.6036
lradius 12.1791
lwrist -19.6052
lhand -19.283 -15.1778
lfingers 7.12502
lthumb 7.03195 14.6853
rfemur -15.7857 7.45578 20.8859
rtibia 8.73171
rfoot -20.7077 -7.10362
rtoes -30.9357
lfemur -16.9586 -9.48912 -17.0036
ltibia 8.83167
lfoot -8.92031 2.8618
ltoes -43.1006
23
root 8.91178 16.2426 31.5151 -161.146 -0.849974 180.714
lowerback -23.9954 -1.20417 -3.83421
upperback -0.260327 -0.770257 -0.433934
thorax 13.2567 -0.712908 1.4111
lowerneck 1.26531 -3.23611 -4.42123
upperneck -10.261 -3.35506 8.30807
head -3.35064 -1.60553 3.68268
rclavicle -3.77691e-015 -7.95139e-015
rhumerus -36.6023 -22.044 -75.959
rradius 25.3714
rwrist 4.34798
rhand -10.5121 -53.0919
rfingers 7.12502
rthumb 15.4904 -82.4913
lclavicle -3.77691e-015 -7.95139e-015
lhumerus -29.6222 15.3026 75.1607
lradius 12.6184
lwrist -17.6922
lhand -19.4295 -14.4477
lfingers 7.12502
lthumb 6.89057 15.4202
rfemur -16.0223 7.54241 20.4917
rtibia 8.8805
rfoot -20.822 -7.2036
rtoes -30.6099
lfemur -17.1908 -9.48228 -17.3517
ltibia 9.02323
lfoot -9.06533 2.77932
ltoes -42.3878
24
root 8.91477 16.2513 31.5108 -160.831 -0.585351 179.767
lowerback -24.3746 -1.39627 -4.91122
upperback -0.344955 -0.702804 -0.686138
thorax 13.3761 -0.757026 1.75807
lowerneck 1.26383 -3.22451 -4.38486
upperneck -10.116 -3.35228 8.33051
head -3.30055 -1.60931 3.67897
rclavicle 1.03368e-014 -4.77083e-015
rhumerus -36.7885 -22.598 -75.5905
rradius 24.9712
rwrist 4.76085
rhand -10.5475 -52.7291
rfingers 7.12502
rthumb 15.4563 -82.1312
lclavicle 1.03368e-014 -4.77083e-015
lhumerus -30.0473 15.1508 75.0247
lradius 12.6509
lwrist -17.5762
lhand -19.5953 -13.8667
lfingers 7.12502
lthumb 6.73049 16.0063
rfemur -16.4187 7.47124 19.2556
rtibia 8.94281
rfoot -20.8057 -7.23843
rtoes -30.4925
lfemur -17.5134 -9.74604 -18.4683
ltibia 9.11098
lfoot -9.15665 2.87778
ltoes -41.6694
25
root 8.90552 16.2424 31.5137 -161.237 -0.779524 180.421
lowerback -23.9108 -1.24577 -4.09
upperback -0.300072 -0.750515 -0.557662
thorax 13.1633 -0.716811 1.42478
lowerneck 1.35477 -3.20725 -4.32157
upperneck -10.0453 -3.3379 8.34285
head -3.29526 -1.60935 3.67171
rclavicle -2.38542e-015 -1.59028e-015
rhumerus -37.0445 -23.056 -75.2822
rradius 24.682
rwrist 5.08828
rhand -10.6482 -52.3713
rfingers 7.12502
rthumb 15.3593 -81.7808
lclavicle -2.38542e-015 -1.59028e-015
lhumerus -30.3864 16.2891 74.2554
lradius 12.1857
lwrist -18.8584
lhand -19.6286 -13.7279
lfingers 7.12502
lthumb 6.69836 16.1462
rfemur -15.9061 7.38847 20.1262
rtibia 8.83039
rfoot -20.7729 -7.09049
rtoes -30.5644
lfemur -17.0509 -9.86807 -17.7693
ltibia 9.03008
lfoot -9.12314 3.02464
ltoes -41.7717
26
root 8.9039 16.2419 31.5138 -161.498 -0.869833 180.583
lowerback -23.6428 -1.24539 -3.94417
upperback -0.265942 -0.800538 -0.476955
thorax 13.0553 -0.727125 1.41978
lowerneck 1.4567 -3.1903 -4.35276
upperneck -10.087 -3.31565 8.36926
head -3.33034 -1.60078 3.69125
rclavicle -4.27387e-015 -2.94201e-014
rhumerus -37.2789 -22.7847 -75.2302
rradius 24.7045
rwrist 4.7705
rhand -10.9107 -52.7072
rfingers 7.12502
rthumb 15.1065 -82.136
lclavicle -4.27387e-015 -2.94201e-014
lhumerus -30.7211 17.7826 73.4125
lradius 11.6487
lwrist -20.4568
lhand -19.5539 -13.9546
lfingers 7.12502
lthumb 6.77046 15.9172
rfemur -15.5246 7.41566 20.3772
rtibia 8.76348
rfoot -20.8679 -6.99463
rtoes -29.9312
lfemur -16.7286 -9.78874 -17.6451
ltibia 9.0124
lfoot -9.16124 2.87714
ltoes -41.6832
27
root 8.90847 16.2443 31.5101 -161.696 -0.934667 180.46
lowerback -23.568 -1.34879 -4.1613
upperback -0.159301 -0.867621 -0.466046
thorax 13.1459 -0.770032 1.53394
lowerneck 1.55174 -3.19128 -4.38854
upperneck -10.2371 -3.30472 8.39321
head -3.40092 -1.59488 3.71433
rclavicle 1.12313e-014 1.39149e-014
rhumerus -37.4222 -22.3553 -75.317
rradius 24.8907
rwrist 4.32653
rhand -10.8965 -53.2817
rfingers 7.12502
rthumb 15.1202 -82.7094
lclavicle 1.12313e-014 1.39149e-014
lhumerus -30.9763 19.1275 72.646
lradius 11.2371
lwrist -21.7844
lhand -19.2997 -14.2548
lfingers 7.12502
lthumb 7.01587 15.6089
rfemur -15.1637 7.69764 20.2757
rtibia 8.65526
rfoot -20.9627 -7.25971
rtoes -29.2857
lfemur -16.442 -9.70545 -17.8306
ltibia 8.96596
lfoot -9.20954 2.69165
ltoes -41.8319
